<svg id="图层_1" data-name="图层 1" xmlns="http://www.w3.org/2000/svg" xmlns:xlink="http://www.w3.org/1999/xlink" viewBox="0 0 400 400"><defs><style>.cls-1{fill:url(#未命名的渐变_7);}.cls-2{fill:url(#未命名的渐变_11);}.cls-3{fill:#fff;}</style><linearGradient id="未命名的渐变_7" x1="18.96" y1="200" x2="381.04" y2="200" gradientUnits="userSpaceOnUse"><stop offset="0" stop-color="#fff"/><stop offset="0.47" stop-color="#fff" stop-opacity="0"/></linearGradient><linearGradient id="未命名的渐变_11" x1="153.14" y1="25.13" x2="246.86" y2="374.87" gradientUnits="userSpaceOnUse"><stop offset="0.25" stop-color="#fff"/><stop offset="0.28" stop-color="#fff" stop-opacity="0"/><stop offset="0.39" stop-color="#fff" stop-opacity="0"/><stop offset="1" stop-color="#fff" stop-opacity="0"/></linearGradient></defs><title>画板 1</title><path class="cls-1" d="M200.16,23A177,177,0,1,1,43.88,116.61,177.32,177.32,0,0,1,200.16,23m0-4a181.06,181.06,0,1,0,85.12,21.38A181,181,0,0,0,200.16,19Z"/><path class="cls-2" d="M199.83,23a178,178,0,0,1,39.26,4.41,176.93,176.93,0,0,1,70.65,311.51,176.54,176.54,0,0,1-148.83,33.75A176.93,176.93,0,0,1,90.26,61.12,177.69,177.69,0,0,1,199.83,23m0-4A181.16,181.16,0,1,0,240,23.47,181.07,181.07,0,0,0,199.83,19Z"/><circle class="cls-3" cx="331" cy="75" r="15"/></svg>